<svg xmlns="http://www.w3.org/2000/svg" viewBox="0 0 300 220" width="600" height="440">
<g transform="translate(115,20) scale(0.7)"><circle cx="50" cy="50" r="46" fill="none" stroke="#5C0E14" stroke-width="3"></circle>
<g stroke="#5C0E14" stroke-width="4.5" stroke-linecap="round">
<line x1="50" y1="15" x2="50" y2="27"></line><line x1="67.5" y1="19.7" x2="61.5" y2="30.1"></line>
<line x1="80.3" y1="32.5" x2="69.9" y2="38.5"></line><line x1="85" y1="50" x2="73" y2="50"></line>
<line x1="80.3" y1="67.5" x2="69.9" y2="61.5"></line><line x1="67.5" y1="80.3" x2="61.5" y2="69.9"></line>
<line x1="50" y1="85" x2="50" y2="73"></line><line x1="32.5" y1="80.3" x2="38.5" y2="69.9"></line>
<line x1="19.7" y1="67.5" x2="30.1" y2="61.5"></line><line x1="15" y1="50" x2="27" y2="50"></line>
<line x1="19.7" y1="32.5" x2="30.1" y2="38.5"></line><line x1="32.5" y1="19.7" x2="38.5" y2="30.1"></line></g>
<circle cx="50" cy="50" r="14" fill="#5C0E14"></circle></g>
<text x="150" y="170" text-anchor="middle" font-family="Poppins, sans-serif" font-weight="700" font-size="40" letter-spacing="1" fill="#5C0E14">OURONOVA</text>
<text x="150" y="196" text-anchor="middle" font-family="Poppins, sans-serif" font-weight="500" font-size="13" letter-spacing="9" fill="#8a5a2a">NEW  GOLD</text></svg>