<svg xmlns="http://www.w3.org/2000/svg" viewBox="0 0 100 100" width="512" height="512">
<rect width="100" height="100" rx="22" fill="#5C0E14"></rect>
<circle cx="50" cy="50" r="34" fill="none" stroke="#F0E193" stroke-width="2.6"></circle>
<g stroke="#F0E193" stroke-width="4" stroke-linecap="round">
<line x1="50" y1="22" x2="50" y2="31"></line><line x1="64" y1="25.8" x2="59.2" y2="34.1"></line>
<line x1="74.2" y1="36" x2="65.9" y2="40.8"></line><line x1="78" y1="50" x2="68.5" y2="50"></line>
<line x1="74.2" y1="64" x2="65.9" y2="59.2"></line><line x1="64" y1="74.2" x2="59.2" y2="65.9"></line>
<line x1="50" y1="78" x2="50" y2="68.5"></line><line x1="36" y1="74.2" x2="40.8" y2="65.9"></line>
<line x1="25.8" y1="64" x2="34.1" y2="59.2"></line><line x1="22" y1="50" x2="31.5" y2="50"></line>
<line x1="25.8" y1="36" x2="34.1" y2="40.8"></line><line x1="36" y1="25.8" x2="40.8" y2="34.1"></line></g>
<circle cx="50" cy="50" r="11" fill="#F0E193"></circle><circle cx="50" cy="50" r="4.3" fill="#5C0E14"></circle></svg>